<svg id="Capa_1" data-name="Capa 1" xmlns="http://www.w3.org/2000/svg" viewBox="0 0 396.85 396.85"><defs><style>.cls-1{fill:#4f46e5;}</style></defs><title>EV Advisory ICONO Mesa de trabajo 1</title><path class="cls-1" d="M198.43,71.15A126.73,126.73,0,0,1,305,129.38h24.14a147.6,147.6,0,0,0-261.45,0H91.84A126.74,126.74,0,0,1,198.43,71.15Z"/><path class="cls-1" d="M198.43,325.7A126.74,126.74,0,0,1,91.84,267.47H67.7a147.6,147.6,0,0,0,261.45,0H305A126.73,126.73,0,0,1,198.43,325.7Z"/><polygon class="cls-1" points="99.31 262.65 185.48 262.65 185.48 242.71 121.31 242.71 121.31 208.94 180.26 208.94 180.26 189.16 121.31 189.16 121.31 155.54 185.48 155.54 185.48 135.76 99.31 135.76 99.31 262.65"/><polygon class="cls-1" points="278.15 135.76 247.52 235.71 216.9 135.76 192.62 135.76 235.4 262.65 259.64 262.65 302.43 135.76 278.15 135.76"/></svg>