<svg id="Capa_1" data-name="Capa 1" xmlns="http://www.w3.org/2000/svg" viewBox="0 0 623.62 283.46"><defs><style>.cls-1{fill:#fff;}</style></defs><title>EV Advisory LOGO Mesa de trabajo 2 copia 5</title><path class="cls-1" d="M115.69,58.9a82.46,82.46,0,0,1,69.37,37.9h15.72a96.07,96.07,0,0,0-170.18,0H46.32A82.47,82.47,0,0,1,115.69,58.9Z"/><path class="cls-1" d="M115.69,224.57a82.49,82.49,0,0,1-69.37-37.9H30.6a96.07,96.07,0,0,0,170.18,0H185.06A82.48,82.48,0,0,1,115.69,224.57Z"/><path class="cls-1" d="M189.42,178.61l27.71-73.5h12.25l27.8,73.5H244.83l-6-17.25h-31l-6,17.25Zm33.93-62-11.88,34.12h23.66Z"/><path class="cls-1" d="M301.09,105.11H312v73.5h-7.54l-2.54-8c-3.39,6.12-9.42,10.08-19.32,10.08-17.72,0-23.09-12.81-23.09-28.27s5.37-28.17,23.09-28.17c9.14,0,15,3.29,18.47,8.67Zm0,47.3c0-10.93-3.39-19.13-15.27-19.13s-15.17,8.2-15.17,19.13,3.3,19.23,15.17,19.23S301.09,163.34,301.09,152.41Z"/><path class="cls-1" d="M358.29,126.31H370L351,178.61H337.65l-18.94-52.3H330.3l14,40.9Z"/><path class="cls-1" d="M381.55,119.83h0c-4.5,0-8.14-3.12-8.14-7v-2.28c0-3.86,3.64-7,8.14-7h0c4.49,0,8.14,3.12,8.14,7v2.28C389.69,116.71,386,119.83,381.55,119.83Z"/><rect class="cls-1" x="376.1" y="126.31" width="10.93" height="52.3"/><path class="cls-1" d="M416.9,180.87c-11.59,0-18-2.36-22.43-4.43v-9.52c3.68,2.55,12.25,5.56,21.3,5.56,8.29,0,13.38-3.48,13.38-8,0-5.46-6.5-6.88-15.17-8.95-14.61-3.67-19.13-8.67-19.13-15.55,0-10.17,7.91-16.11,22-16.11,11.5,0,17.9,3.11,20.35,4.24V137a40.77,40.77,0,0,0-19.22-4.9c-8,0-12.82,2.73-12.82,7.91s7,6.22,16.5,8.77c13.19,3.48,17.52,8.29,17.52,15.45C439.23,175,430.28,180.87,416.9,180.87Z"/><path class="cls-1" d="M472.59,124.24c20.73,0,27,12.72,27,28.17s-6.22,28.27-27,28.27-26.95-12.81-26.95-28.27S451.76,124.24,472.59,124.24Zm0,9c-12.44,0-15.83,8.2-15.83,19.13s3.39,19.23,15.83,19.23,15.83-8.39,15.83-19.23S485,133.28,472.59,133.28Z"/><path class="cls-1" d="M537.61,124.71v9.61a16,16,0,0,0-5.56-.66c-7.45,0-13.57,6.22-13.57,16.3v28.65H507.55v-52.3h7.35l2.54,7.73c3.3-6.51,9-9.8,15.46-9.8A17.15,17.15,0,0,1,537.61,124.71Z"/><path class="cls-1" d="M561,177.2,542.7,126.31h11.4l13.76,40.52,13.66-40.52H593L574.74,177.2c-5.09,15-10.56,21.39-20.74,21.39a21.75,21.75,0,0,1-6.78-.85v-9.05a19,19,0,0,0,5.94.76c5.37,0,8.48-4.72,11.21-12.25Z"/><polygon class="cls-1" points="51.18 183.53 107.27 183.53 107.27 170.56 65.5 170.56 65.5 148.57 103.86 148.57 103.86 135.7 65.5 135.7 65.5 113.82 107.27 113.82 107.27 100.94 51.18 100.94 51.18 183.53"/><polygon class="cls-1" points="167.58 100.94 147.65 166 127.71 100.94 111.91 100.94 139.76 183.53 155.53 183.53 183.38 100.94 167.58 100.94"/></svg>